<svg width="295" height="191" viewBox="0 0 295 191" fill="none" xmlns="http://www.w3.org/2000/svg">
<rect width="293" height="191" fill="#ECE5A4"/>
<line x1="229.329" y1="179.632" x2="188.626" y2="97.6686" stroke="#6DCF20" stroke-width="12"/>
<line x1="289.923" y1="112.223" x2="230.262" y2="172.441" stroke="#6DCF20" stroke-width="12"/>
<path d="M35 28C46.3333 26 71.4 23.2 81 28C90.6 32.8 127.333 30 144.5 28C160.333 26.3333 195 24 207 28C222 33 253 32.5 255.5 28" stroke="black"/>
<path d="M35 67.5C55.8333 63.1667 102.8 57.1 124 67.5C150.5 80.5 181.5 67.5 187.5 67.5C193.5 67.5 242.5 56 255.5 67.5" stroke="black"/>
<path d="M36.5 101C86 97.5 116.5 93 140 101" stroke="black"/>
</svg>
